<?xml version="1.0" encoding="utf-8"?>
<!-- Generator: Adobe Illustrator 15.0.0, SVG Export Plug-In . SVG Version: 6.00 Build 0)  -->
<!DOCTYPE svg PUBLIC "-//W3C//DTD SVG 1.1//EN" "http://www.w3.org/Graphics/SVG/1.1/DTD/svg11.dtd">
<svg version="1.1" id="Layer_1" xmlns="http://www.w3.org/2000/svg" xmlns:xlink="http://www.w3.org/1999/xlink" x="0px" y="0px"
	 width="124.411px" height="117.104px" viewBox="0 0 124.411 117.104" enable-background="new 0 0 124.411 117.104"
	 xml:space="preserve">
<g>
	<path fill="rgba(255,255,255,0.5)" d="M36.299,0.06C36.979,0.021,37.821,0,38.823,0h2.404c0.2,0,0.4,0,0.601,0c0.16,0,0.28,0.021,0.361,0.06
		c4.929,0,9.416,1.423,13.463,4.268c4.126,2.846,7.333,6.392,9.616,10.638c2.324,4.248,3.487,8.294,3.487,12.141v8.896
		c0,4.608-1.082,10.198-3.246,16.769c-2.245,6.692-4.909,12.983-7.994,18.873c-3.166,6.051-5.971,10.419-8.414,13.103h0.48
		c3.405-1.562,7.443-4.787,12.111-9.676c4.667-4.889,8.706-9.497,12.112-13.824c3.084-3.886,5.508-7.052,7.271-9.497
		c0.08-0.241,0.181-0.941,0.301-2.104c0.12-1.082,0.18-2.684,0.18-4.809c0.08-5.689,0.982-11.7,2.705-18.031
		c1.643-6.29,3.887-11.589,6.732-15.897c2.844-4.307,5.949-6.461,9.315-6.461c1.001,0,1.743,0.702,2.224,2.104
		c0.48,1.403,0.722,3.005,0.722,4.809c0,3.967-0.722,7.914-2.164,11.84c-1.442,3.927-2.925,7.133-4.447,9.617
		c-1.483,2.444-3.417,5.43-5.8,8.955c-2.385,3.527-3.657,5.71-3.816,6.552c0,0.881,0.26,2.524,0.781,4.928
		c0.48,2.324,1.502,4.889,3.064,7.693c1.522,2.725,3.687,4.908,6.492,6.551c0.199-0.52,1.061-3.485,2.584-8.895
		c1.442-5.369,3.164-10.558,5.169-15.567c2.003-4.928,4.606-9.376,7.813-13.343c3.246-3.967,6.992-6.311,11.239-7.032l0.24,0.06
		c-0.04,0.12-0.101,0.301-0.181,0.541c-0.119,0.201-0.42,0.882-0.9,2.043c-0.722,1.844-1.344,3.606-1.863,5.289
		c-0.562,1.764-0.842,3.327-0.842,4.688c0,0.441,0.039,0.842,0.12,1.202l0.722,3.907c-3.366,0.721-6.713,2.925-10.038,6.611
		c-3.326,3.647-6.37,8.395-9.136,14.245c-2.725,5.77-4.889,12.211-6.491,19.323s-2.403,14.255-2.403,21.427l-0.241-0.061
		c-2.604-3.565-5.209-8.865-7.813-15.896c-2.605-7.033-4.027-12.713-4.268-17.04c-0.16-3.967-0.24-6.53-0.24-7.693
		c0-2.484,0.16-4.187,0.48-5.108l-2.704,2.945c-0.682,0.802-1.764,2.125-3.245,3.967c-0.643,0.802-2.806,3.387-6.492,7.753
		c-2.404,2.846-5.108,5.931-8.114,9.256c-2.645,2.846-4.728,4.868-6.25,6.071c-3.486,2.764-7.955,5.99-13.403,9.676
		c-5.37,3.566-8.214,5.35-8.535,5.35l-0.24-0.24c0.801-0.922,2.213-2.734,4.237-5.439c2.023-2.705,4.297-6.221,6.822-10.549
		c2.524-4.327,4.757-9.226,6.702-14.695c1.943-5.469,2.915-10.828,2.915-16.077V43.395c0-1.963-0.702-4.587-2.104-7.874
		c-1.403-3.366-3.456-6.341-6.161-8.925c-2.705-2.584-5.86-3.877-9.466-3.877c-3.406,0-6.271,0.912-8.595,2.735
		c-2.324,1.824-3.546,3.857-3.667,6.101h-0.3c-1.163-4.247-2.705-7.553-4.628-9.917c-1.844-2.284-3.807-3.826-5.89-4.628
		c-2.004-0.761-4.228-1.241-6.671-1.442c2.724-3.606,5.589-6.47,8.595-8.595c3.085-2.203,6.371-3.826,9.857-4.869
		C27.543,1.062,31.65,0.381,36.299,0.06z M90.933,20.255c-1.523,1.042-2.865,3.486-4.027,7.333
		c-1.162,3.807-1.742,7.654-1.742,11.54c0,2.084,0.199,3.907,0.601,5.47c3.126-4.087,5.188-7.713,6.19-10.879
		c0.962-3.085,1.443-6.271,1.443-9.557c0-2.844-0.521-4.267-1.563-4.267C91.594,19.895,91.293,20.015,90.933,20.255z"/>
	<path fill="#444444" d="M34.889,107.365h-0.102c1.582,0,2.809,0.439,3.683,1.317c0.962,0.967,1.444,2.131,1.444,3.492
		c0,1.365-0.481,2.529-1.444,3.491c-0.874,0.879-2.102,1.317-3.683,1.317h0.102v0.013h-0.808v-9.643h0.808V107.365z M34.889,108.18
		v7.989c1.285,0,2.286-0.36,3.002-1.081c0.802-0.801,1.202-1.772,1.202-2.913c0-1.137-0.4-2.108-1.202-2.913
		C37.175,108.541,36.174,108.18,34.889,108.18z"/>
	<path fill="#444444" d="M49.071,107.354v0.808h-4.154v3.612h4.154v0.802h-4.154v3.613h4.154v0.808H44.11v-9.643H49.071z"/>
	<path fill="#444444" d="M55.812,111.806c-0.687-0.229-1.234-0.548-1.641-0.958c-0.407-0.408-0.61-0.906-0.61-1.49
		c0-0.577,0.207-1.073,0.62-1.489c0.413-0.415,0.915-0.623,1.504-0.623c0.585,0,1.085,0.206,1.501,0.616
		c0.233,0.221,0.407,0.514,0.521,0.879l-0.731,0.285c-0.093-0.258-0.214-0.461-0.362-0.609c-0.255-0.255-0.564-0.383-0.929-0.383
		c-0.365,0-0.675,0.129-0.932,0.385c-0.256,0.258-0.385,0.57-0.385,0.939c0,0.359,0.129,0.67,0.388,0.928
		c0.25,0.25,0.6,0.479,1.049,0.688c0.763,0.246,1.41,0.634,1.94,1.164c0.568,0.564,0.853,1.246,0.853,2.048
		c0,0.81-0.285,1.499-0.855,2.067s-1.256,0.852-2.058,0.852c-0.806,0-1.493-0.285-2.061-0.857c-0.454-0.454-0.731-1.021-0.833-1.699
		l0.77-0.279c0.067,0.59,0.277,1.062,0.629,1.418c0.416,0.416,0.914,0.623,1.495,0.623c0.585,0,1.084-0.206,1.498-0.619
		c0.414-0.414,0.621-0.916,0.621-1.505c0-0.581-0.206-1.077-0.617-1.488C56.812,112.323,56.354,112.026,55.812,111.806z"/>
	<path fill="#444444" d="M63.41,107.354v9.643h-0.808v-9.643H63.41z"/>
	<path fill="#444444" d="M76.154,115.75c-0.945,0.902-2.057,1.354-3.332,1.354c-1.361,0-2.523-0.479-3.486-1.439
		c-0.963-0.961-1.443-2.124-1.443-3.489c0-1.361,0.48-2.523,1.443-3.485c0.963-0.963,2.125-1.444,3.486-1.444
		c1.275,0,2.421,0.46,3.435,1.38l-0.604,0.554c-0.84-0.747-1.783-1.12-2.83-1.12c-1.133,0-2.101,0.402-2.904,1.206
		c-0.803,0.804-1.205,1.773-1.205,2.91c0,1.141,0.402,2.112,1.205,2.916c0.804,0.804,1.771,1.206,2.904,1.206
		c0.975,0,1.816-0.287,2.525-0.859v-2.926h0.807V115.75z"/>
	<path fill="#444444" d="M80.611,107.354h0.801l4.587,7.944v-7.944h0.808v9.643h-0.744l-4.644-8.027v8.027h-0.808V107.354z"/>
	<path fill="#444444" d="M93.705,111.806c-0.687-0.229-1.233-0.548-1.641-0.958c-0.407-0.408-0.61-0.906-0.61-1.49
		c0-0.577,0.206-1.073,0.62-1.489c0.413-0.415,0.914-0.623,1.504-0.623c0.586,0,1.086,0.206,1.502,0.616
		c0.232,0.221,0.406,0.514,0.521,0.879l-0.732,0.285c-0.093-0.258-0.214-0.461-0.361-0.609c-0.256-0.255-0.564-0.383-0.93-0.383
		c-0.364,0-0.675,0.129-0.932,0.385c-0.256,0.258-0.385,0.57-0.385,0.939c0,0.359,0.129,0.67,0.389,0.928
		c0.25,0.25,0.6,0.479,1.049,0.688c0.764,0.246,1.41,0.634,1.939,1.164c0.568,0.564,0.854,1.246,0.854,2.048
		c0,0.81-0.285,1.499-0.855,2.067s-1.257,0.852-2.059,0.852c-0.806,0-1.492-0.285-2.061-0.857c-0.454-0.454-0.731-1.021-0.834-1.699
		l0.771-0.279c0.067,0.59,0.277,1.062,0.63,1.418c0.415,0.416,0.914,0.623,1.494,0.623c0.586,0,1.085-0.206,1.498-0.619
		c0.414-0.414,0.621-0.916,0.621-1.505c0-0.581-0.207-1.077-0.617-1.488C94.707,112.323,94.248,112.026,93.705,111.806z"/>
</g>
</svg>
